<?xml version="1.0" encoding="UTF-8"?>
<svg version="1.1" xmlns="http://www.w3.org/2000/svg" width="278" height="200">
<path d="M0 0 C91.74 0 183.48 0 278 0 C278 66 278 132 278 200 C186.26 200 94.52 200 0 200 C0 134 0 68 0 0 Z " fill="#090909" transform="translate(0,0)"/>
<path d="M0 0 C91.74 0 183.48 0 278 0 C278 29.37 278 58.74 278 89 C275 85 275 85 273.0625 81.9375 C270.40692052 78.15531105 268.36035442 76.45345147 264 75 C259.38220666 74.80276055 259.38220666 74.80276055 254.875 75.625 C253 76 253 76 250.6875 75.0625 C243.03023495 72.03520917 233.6527121 75.08736908 226.3203125 78.1015625 C224 79 224 79 221 79 C221.165 78.01 221.33 77.02 221.5 76 C221.67723785 74.66803067 221.84329259 73.3345405 222 72 C222.07992187 71.34 222.15984375 70.68 222.2421875 70 C222.56409749 65.15241423 221.55676706 62.25084446 218.48046875 58.4765625 C215.07186128 55.07694872 211.94954465 54.12660595 207.25 53.5 C200.18871608 53.77106656 192.96638604 58.18411051 188 63 C184.89768385 67.15890208 184.66869917 70.18360384 184.8125 75.3125 C184.83957031 76.56675781 184.86664063 77.82101563 184.89453125 79.11328125 C184.92933594 80.06589844 184.96414062 81.01851563 185 82 C184.34 82 183.68 82 183 82 C182.67 82.66 182.34 83.32 182 84 C181.175 83.236875 180.35 82.47375 179.5 81.6875 C171.78075073 75.24566787 161.69390012 74.32035387 152 75 C144.6730621 76.15856706 137.65650612 77.67174694 131 81 C130.67 80.01 130.34 79.02 130 78 C127.21809979 76.94461613 124.5233477 76.8653732 121.5703125 76.83886719 C120.7026123 76.82925964 119.83491211 76.8196521 118.94091797 76.80975342 C118.01166504 76.80550354 117.08241211 76.80125366 116.125 76.796875 C115.16352051 76.79117493 114.20204102 76.78547485 113.21142578 76.77960205 C111.18067522 76.77016686 109.14990944 76.76362396 107.11914062 76.75976562 C104.011449 76.75003585 100.90441218 76.71898866 97.796875 76.6875 C95.82292059 76.68097195 93.84896146 76.6757207 91.875 76.671875 C90.94574707 76.6595282 90.01649414 76.6471814 89.05908203 76.63446045 C83.9846836 76.60682668 83.9846836 76.60682668 79.3828125 78.52050781 C78.69832031 79.25285645 78.69832031 79.25285645 78 80 C77.48574463 79.51176758 76.97148926 79.02353516 76.44165039 78.52050781 C73.14398711 76.46692848 70.80162422 76.64315507 66.93359375 76.671875 C66.25829117 76.67374817 65.58298859 76.67562134 64.88722229 76.67755127 C63.46423378 76.6842549 62.04126318 76.69813592 60.6184082 76.71875 C58.44139456 76.7499442 56.26510581 76.75972802 54.08789062 76.765625 C46.93946716 76.6319818 46.93946716 76.6319818 40 78 C39.01 77.505 39.01 77.505 38 77 C33.62987717 76.74159212 29.25594302 76.72896618 24.87915039 76.70483398 C22.70589761 76.68764551 20.53417654 76.64376193 18.36132812 76.59960938 C16.9739695 76.58947974 15.58659796 76.58096448 14.19921875 76.57421875 C12.93940186 76.55963623 11.67958496 76.54505371 10.3815918 76.5300293 C5.52442017 77.20507481 3.3544892 79.6455108 0 83 C0 55.61 0 28.22 0 0 Z " fill="#FEFEFE" transform="translate(0,0)"/>
<path d="M0 0 C3 4 3 4 3 6 C3.99 6.33 4.98 6.66 6 7 C6.0093457 7.73001221 6.01869141 8.46002441 6.02832031 9.2121582 C6.08262063 12.57957643 6.16614882 15.945693 6.25 19.3125 C6.26417969 20.46041016 6.27835937 21.60832031 6.29296875 22.79101562 C6.56185746 32.28278709 7.69710239 41.22835784 14.8125 48.0625 C22.39723914 53.87978617 31.24796948 53.83052133 40.4453125 52.69921875 C41.14398438 52.59222656 41.84265625 52.48523438 42.5625 52.375 C46 52 46 52 49 54 C55.85235019 54.65260478 60.82472876 53.28314227 67.203125 50.77734375 C70.27712846 49.92297687 71.98014818 50.06298924 75 51 C75.33 51.33 75.66 51.66 76 52 C77.41051079 52.10847273 78.82634314 52.14901153 80.2409668 52.16113281 C81.14247971 52.17074036 82.04399261 52.1803479 82.9728241 52.19024658 C83.95503433 52.19449646 84.93724457 52.19874634 85.94921875 52.203125 C87.45727837 52.21167511 87.45727837 52.21167511 88.99580383 52.22039795 C91.13024843 52.22986677 93.26470778 52.23638936 95.39916992 52.24023438 C98.65635013 52.24990749 101.91289083 52.28089991 105.16992188 52.3125 C107.24218375 52.31903303 109.31445014 52.32428232 111.38671875 52.328125 C112.35880783 52.3404718 113.33089691 52.3528186 114.33244324 52.36553955 C119.67131175 52.34807206 123.35037348 51.94396998 128 49 C128 49.66 128 50.32 128 51 C132.33118987 52.64624411 135.93437493 53.27185655 140.5625 53.25 C142.20412109 53.25773437 142.20412109 53.25773437 143.87890625 53.265625 C146.9954207 53.00038973 149.14842908 52.21437589 152 51 C154.67770941 51.31136156 156.59556732 51.79778366 159 53 C166.7140052 53.59076328 173.44683213 52.99917104 180.7578125 50.4609375 C181.49773437 50.30882812 182.23765625 50.15671875 183 50 C183.99 50.66 184.98 51.32 186 52 C189.05220255 52.3123878 189.05220255 52.3123878 192.5793457 52.2746582 C193.2431424 52.27976913 193.90693909 52.28488007 194.59085083 52.29014587 C196.78591933 52.30404843 198.98067394 52.30308418 201.17578125 52.30078125 C202.70411801 52.30466882 204.23245368 52.30900361 205.76078796 52.31376648 C208.96613056 52.32123083 212.17136303 52.32093662 215.37670898 52.31567383 C219.4757153 52.30988943 223.57426825 52.32678383 227.67319965 52.3500185 C230.83115761 52.36478546 233.98900727 52.36562335 237.14699364 52.36250877 C238.65760379 52.36302085 240.16822018 52.36823722 241.67879677 52.37832069 C243.79698285 52.39072097 245.91429753 52.38387218 248.0324707 52.37231445 C249.83757866 52.37325859 249.83757866 52.37325859 251.67915344 52.3742218 C255.41588377 51.95313461 257.80946577 50.96605196 261 49 C263.70460267 44.94309599 264.51470398 41.83821742 264 37 C263.44525427 34.23690643 263.44525427 34.23690643 262 32 C259.47627099 30.63921965 259.47627099 30.63921965 257 30 C257 27.69 257 25.38 257 23 C257.72445313 23.05800781 258.44890625 23.11601563 259.1953125 23.17578125 C265.73047073 23.60947001 265.73047073 23.60947001 271.5 21 C274.51207283 17.3855126 275.63390101 14.47776891 277 10 C277.33 10 277.66 10 278 10 C278 42.67 278 75.34 278 109 C186.26 109 94.52 109 0 109 C0 73.03 0 37.06 0 0 Z " fill="#FEFEFE" transform="translate(0,91)"/>
<path d="M0 0 C2 2 2 2 2.24482727 3.81480408 C2.24306992 4.54743973 2.24131256 5.28007538 2.23950195 6.03491211 C2.24323318 6.86594955 2.24696442 7.696987 2.25080872 8.5532074 C2.24667465 9.45217239 2.24254059 10.35113739 2.23828125 11.27734375 C2.25369821 13.17123115 2.27000164 15.0651115 2.28710938 16.95898438 C2.30358862 19.95255011 2.31248089 22.94560147 2.30541992 25.93920898 C2.30280769 28.82335075 2.33086374 31.70591242 2.36328125 34.58984375 C2.35307449 35.48678452 2.34286774 36.38372528 2.33235168 37.30784607 C2.36935021 39.64819009 2.43131748 41.72920404 3 44 C5.36374211 46.17539862 5.36374211 46.17539862 8 47 C10.62394498 44.82441147 11.880265 43.6233892 12.53344727 40.22265625 C12.56900097 36.81371435 12.59392879 33.40909919 12.5625 30 C12.58634766 28.81148437 12.61019531 27.62296875 12.63476562 26.3984375 C12.63283203 25.25632812 12.63089844 24.11421875 12.62890625 22.9375 C12.6299939 21.37322266 12.6299939 21.37322266 12.63110352 19.77734375 C11.792067 16.08493393 10.08597408 15.0428236 7 13 C7.17578125 10.69921875 7.17578125 10.69921875 8 8 C15.2646067 2.36388657 24.92983135 0.09994676 34 0 C36.5654594 2.5654594 36.54046087 4.47686668 37 8 C37.65355469 7.36771484 37.65355469 7.36771484 38.3203125 6.72265625 C41.18320755 4.08904067 43.43000176 2.20519937 47.125 0.875 C50.97395756 1.04234598 52.42172303 2.194228 55 5 C55 6.32 55 7.64 55 9 C55.66 9 56.32 9 57 9 C57.32623167 15.11382319 57.42194939 19.66175896 54 25 C53 26 53 26 50.375 26.5625 C45.72409508 25.78734918 44.37209466 23.40304949 41.61328125 19.75 C41.08089844 19.1725 40.54851562 18.595 40 18 C39.01 18 38.02 18 37 18 C36.91305958 22.10403363 36.85962851 26.20783129 36.8125 30.3125 C36.78736328 31.47974609 36.76222656 32.64699219 36.73632812 33.84960938 C36.72182617 35.52700195 36.72182617 35.52700195 36.70703125 37.23828125 C36.68346558 38.7857605 36.68346558 38.7857605 36.65942383 40.36450195 C36.77370753 43.0211664 36.77370753 43.0211664 38.3815918 44.75463867 C38.9156665 45.16560791 39.44974121 45.57657715 40 46 C41.0828125 46.8353125 41.0828125 46.8353125 42.1875 47.6875 C43.0846875 48.3371875 43.0846875 48.3371875 44 49 C43.625 51.4375 43.625 51.4375 43 54 C39.99950089 55.50024955 37.25238904 55.11100629 33.91015625 55.09765625 C33.20982773 55.0962413 32.50949921 55.09482635 31.78794861 55.09336853 C29.54608918 55.08776665 27.30432922 55.07522539 25.0625 55.0625 C23.55534 55.05748422 22.04817841 55.05292145 20.54101562 55.04882812 C16.69398244 55.03745326 12.84700413 55.01880539 9 55 C6.94845905 55 4.89689611 55.01109848 2.84545898 55.03173828 C-0.55674678 55.06583155 -3.95877415 55.09077278 -7.36108398 55.10986328 C-8.83051389 55.11996694 -10.2999235 55.13364774 -11.76928711 55.15087891 C-13.88921014 55.17507407 -16.00887064 55.18646544 -18.12890625 55.1953125 C-19.39806885 55.20578613 -20.66723145 55.21625977 -21.97485352 55.22705078 C-25 55 -25 55 -27 53 C-27.4375 50.6875 -27.4375 50.6875 -27 48 C-26.17886719 47.38898438 -25.35773438 46.77796875 -24.51171875 46.1484375 C-21.62782187 43.38481006 -21.54255586 40.86721278 -21.3359375 36.96484375 C-21.32268087 34.62239716 -21.33662474 32.27966975 -21.375 29.9375 C-21.34599609 28.16149414 -21.34599609 28.16149414 -21.31640625 26.34960938 C-21.32285156 25.21201172 -21.32929688 24.07441406 -21.3359375 22.90234375 C-21.34157715 21.86585693 -21.3472168 20.82937012 -21.35302734 19.76147461 C-22.21304318 16.09066738 -23.9283861 15.03788009 -27 13 C-26.84375 10.69921875 -26.84375 10.69921875 -26 8 C-19.0110906 2.97388496 -8.79278843 -1.06579254 0 0 Z " fill="#F8F8F8" transform="translate(213,81)"/>
<path d="M0 0 C1.21042969 -0.00128906 2.42085937 -0.00257812 3.66796875 -0.00390625 C4.94285156 -0.00003906 6.21773437 0.00382812 7.53125 0.0078125 C9.44357422 0.00201172 9.44357422 0.00201172 11.39453125 -0.00390625 C13.21017578 -0.00197266 13.21017578 -0.00197266 15.0625 0 C16.18205078 0.00112793 17.30160156 0.00225586 18.45507812 0.00341797 C21.03125 0.1328125 21.03125 0.1328125 22.03125 1.1328125 C22.1535887 3.43793114 22.21108877 5.74653422 22.2421875 8.0546875 C22.27027065 9.48699031 22.2989352 10.91928182 22.328125 12.3515625 C22.36929455 14.61392731 22.40617136 16.87608443 22.43261719 19.13867188 C22.46033094 21.31945756 22.50621653 23.49927732 22.5546875 25.6796875 C22.57450684 26.98776367 22.59432617 28.29583984 22.61474609 29.64355469 C23.054271 33.3256707 23.7028688 35.26639098 26.03125 38.1328125 C29.58232891 39.11688488 29.58232891 39.11688488 33.03125 39.1328125 C35.80491777 36.35914473 34.31625537 27.99341656 34.34375 24.2578125 C34.37275391 22.95199219 34.40175781 21.64617187 34.43164062 20.30078125 C34.44420898 18.42712891 34.44420898 18.42712891 34.45703125 16.515625 C34.47161377 15.36465332 34.48619629 14.21368164 34.5012207 13.02783203 C34.33361285 10.01603688 34.33361285 10.01603688 32.02416992 8.42919922 C31.36650635 8.0013916 30.70884277 7.57358398 30.03125 7.1328125 C29.71875 4.0078125 29.71875 4.0078125 30.03125 1.1328125 C31.80574594 -0.64168344 34.38142261 0.00251178 36.78125 0 C37.9465625 -0.00128906 39.111875 -0.00257812 40.3125 -0.00390625 C41.5396875 -0.00003906 42.766875 0.00382812 44.03125 0.0078125 C45.87203125 0.00201172 45.87203125 0.00201172 47.75 -0.00390625 C49.49796875 -0.00197266 49.49796875 -0.00197266 51.28125 0 C52.35890625 0.00112793 53.4365625 0.00225586 54.546875 0.00341797 C57.03125 0.1328125 57.03125 0.1328125 58.03125 1.1328125 C58.19135481 3.86982428 58.29071828 6.5844884 58.34765625 9.32421875 C58.36843735 10.14405746 58.38921844 10.96389618 58.41062927 11.80857849 C58.47621494 14.43740151 58.53505126 17.06632754 58.59375 19.6953125 C58.63692667 21.47331811 58.68054067 23.25131315 58.72460938 25.02929688 C58.83190543 29.39702884 58.93314704 33.76486477 59.03125 38.1328125 C59.67191406 38.42285156 60.31257813 38.71289062 60.97265625 39.01171875 C63.03125 40.1328125 63.03125 40.1328125 63.96875 42.0703125 C64.03125 44.1328125 64.03125 44.1328125 62.9765625 45.56640625 C60.2429807 47.7675434 57.20292869 48.98144767 53.96875 50.2578125 C52.97089478 50.65637451 52.97089478 50.65637451 51.95288086 51.06298828 C46.6886501 53.07415693 41.69361239 54.10616609 36.03125 54.1328125 C35.53625 51.1628125 35.53625 51.1628125 35.03125 48.1328125 C34.391875 48.4009375 33.7525 48.6690625 33.09375 48.9453125 C31.5778125 49.533125 31.5778125 49.533125 30.03125 50.1328125 C29.04898438 50.52919922 29.04898438 50.52919922 28.046875 50.93359375 C21.85157735 53.25133808 15.36412634 54.71801116 8.94921875 52.37109375 C3.4603513 49.44754962 0.97105573 45.88023587 -0.96875 40.1328125 C-1.20825195 36.98242188 -1.20825195 36.98242188 -1.20703125 33.4765625 C-1.22314453 32.20683594 -1.23925781 30.93710938 -1.25585938 29.62890625 C-1.27278615 26.96489243 -1.27799478 24.30077839 -1.27148438 21.63671875 C-1.29146484 20.36699219 -1.31144531 19.09726563 -1.33203125 17.7890625 C-1.33501221 16.63212891 -1.33799316 15.47519531 -1.34106445 14.28320312 C-2.14599339 10.24321749 -3.97425462 8.85267265 -6.96875 6.1328125 C-7.34375 3.3828125 -7.34375 3.3828125 -6.96875 1.1328125 C-5.16595809 -0.66997941 -2.42827299 0.00244645 0 0 Z " fill="#F9F9F9" transform="translate(14.96875,83.8671875)"/>
<path d="M0 0 C0.94166016 -0.02835937 1.88332031 -0.05671875 2.85351562 -0.0859375 C8.56463904 -0.10183485 12.45712759 0.75042963 17.27905273 3.83789062 C20.45581538 7.02166805 21.81283464 10.30982557 22.27807617 14.75146484 C22.2545105 16.46390381 22.2545105 16.46390381 22.23046875 18.2109375 C22.2159668 20.07685547 22.2159668 20.07685547 22.20117188 21.98046875 C22.17603516 23.26566406 22.15089844 24.55085938 22.125 25.875 C22.10469727 27.83759766 22.10469727 27.83759766 22.08398438 29.83984375 C22.0487237 33.06031844 21.99943633 36.27994606 21.9375 39.5 C24.2475 39.5 26.5575 39.5 28.9375 39.5 C28.76396208 43.92521695 28.44155472 45.95906323 25.375 49.25 C19.489183 53.48611057 13.45048792 55.1158826 6.21484375 54.9375 C2.51053169 54.22586544 1.15680451 52.45907268 -1.0625 49.5 C-1.95388672 50.04140625 -1.95388672 50.04140625 -2.86328125 50.59375 C-9.2772732 54.18478748 -14.70945486 55.79271277 -22.0625 54.5 C-25.76683057 52.38323967 -27.43250556 50.36946505 -29.0625 46.5 C-29.84840613 40.88638479 -29.30484268 36.25543593 -26.0625 31.5 C-19.75239047 24.52566841 -10.05849357 22.85481831 -1.0625 21.5 C-1.03560784 20.02093108 -1.01615379 18.54172517 -1 17.0625 C-0.98839844 16.23878906 -0.97679687 15.41507813 -0.96484375 14.56640625 C-0.82982652 12.50836062 -0.82982652 12.50836062 -2.0625 11.5 C-7.2939462 10.83177277 -7.2939462 10.83177277 -12.04296875 12.69921875 C-15.1307077 15.31293381 -17.83957407 18.10023093 -20.0625 21.5 C-22.4375 21.1875 -22.4375 21.1875 -25.0625 20.5 C-27.16029019 17.35331472 -27.67335501 15.33157021 -27.5625 11.5625 C-26.7828136 8.34629361 -24.96383484 6.87958832 -22.47265625 4.82421875 C-15.21091108 0.83437821 -8.18958402 -0.02251432 0 0 Z " fill="#F9F9F9" transform="translate(157.0625,82.5)"/>
<path d="M0 0 C2.9795099 -0.26653946 5.7488582 -0.34767784 8.7265625 -0.29296875 C9.58937836 -0.28872391 10.45219421 -0.28447906 11.34115601 -0.28010559 C14.10275197 -0.26328392 16.86362383 -0.22562598 19.625 -0.1875 C21.49478114 -0.17245764 23.3645737 -0.15876846 25.234375 -0.14648438 C29.82319658 -0.11336906 34.41147544 -0.06156339 39 0 C38.44207881 4.48713287 36.72156811 7.34083721 34.21875 11.0703125 C33.84520386 11.63321991 33.47165771 12.19612732 33.08679199 12.77609253 C31.89867734 14.56418957 30.70006011 16.3449028 29.5 18.125 C28.30157773 19.91325194 27.10550738 21.70299044 25.91320801 23.49533081 C24.83307109 25.11748726 23.74581241 26.73489484 22.65820312 28.35205078 C20.88493898 30.95269315 20.88493898 30.95269315 20 34 C21.89825285 33.57312017 23.79353183 33.13300518 25.6875 32.6875 C26.74324219 32.44386719 27.79898438 32.20023438 28.88671875 31.94921875 C31.97863622 31.00651367 34.25024447 29.65738689 37 28 C39.8125 28.3125 39.8125 28.3125 42 29 C42 35 42 35 36 52 C22.14 52 8.28 52 -6 52 C-7 48 -7 48 -5.38525391 44.91552734 C-4.59522595 43.71377121 -3.79136549 42.52103583 -2.9765625 41.3359375 C-2.55579437 40.70265533 -2.13502625 40.06937317 -1.70150757 39.41690063 C-0.3543735 37.39481221 1.0097659 35.3849013 2.375 33.375 C3.72904606 31.35545471 5.07961751 29.33361587 6.43008423 27.31167603 C7.27185048 26.05431138 8.11647553 24.79885505 8.96420288 23.54550171 C11.12718105 20.35952931 11.12718105 20.35952931 13 17 C10.93728361 17.3110685 8.87483534 17.62391516 6.8125 17.9375 C5.66394531 18.11152344 4.51539062 18.28554687 3.33203125 18.46484375 C1.2573778 18.79805304 -0.81096283 19.17812417 -2.86328125 19.62890625 C-3.56839844 19.75136719 -4.27351563 19.87382813 -5 20 C-6 19 -6 19 -6.3125 16 C-6.25110052 10.05653039 -3.22302616 4.83453924 0 0 Z " fill="#FAFAFA" transform="translate(85,84)"/>
<path d="M0 0 C2.5 1.625 2.5 1.625 4 4 C4.0625 7.5 4.0625 7.5 3 11 C-0.38335685 14.38335685 -3.91979502 16.79734393 -8.7265625 17.265625 C-9.68304688 17.26046875 -10.63953125 17.2553125 -11.625 17.25 C-12.58664063 17.25515625 -13.54828125 17.2603125 -14.5390625 17.265625 C-17 17 -17 17 -19 15 C-19.625 11.8125 -19.625 11.8125 -19 8 C-13.65756548 1.69542088 -8.29255085 -2.07313771 0 0 Z " fill="#F7F7F7" transform="translate(211,62)"/>
<path d="M0 0 C0.25 6.625 0.25 6.625 -2 10 C-4.5 10.3125 -4.5 10.3125 -7 10 C-7.66 9.34 -8.32 8.68 -9 8 C-8.78739686 5.23615924 -8.32831986 3.47606379 -6.75 1.1875 C-4.41988723 -0.39364795 -2.75498245 -0.22337696 0 0 Z " fill="#131313" transform="translate(157,114)"/>
</svg>
