<?xml version="1.0" encoding="UTF-8"?>
<svg version="1.1" xmlns="http://www.w3.org/2000/svg" width="512" height="512">
<path d="M0 0 C0.99950684 0.19335938 1.99901367 0.38671875 3.02880859 0.5859375 C48.83906216 9.64039665 88.39370403 30.29765396 124 60 C124.66128906 60.5259375 125.32257813 61.051875 126.00390625 61.59375 C127.37188264 62.68559195 128.69377442 63.83498799 130 65 C130 65.66 130 66.32 130 67 C130.59167969 67.26554687 131.18335938 67.53109375 131.79296875 67.8046875 C138.29222768 71.32464012 143.29737022 78.41186589 148 84 C148.46712402 84.55333008 148.93424805 85.10666016 149.41552734 85.67675781 C157.29049938 95.04809739 164.51848619 104.61424643 171 115 C171.40283203 115.63953613 171.80566406 116.27907227 172.22070312 116.93798828 C189.45957549 144.52428206 201.13272046 175.00935678 207 207 C207.16081055 207.81130371 207.32162109 208.62260742 207.48730469 209.45849609 C212.79580692 237.0243989 212.62185797 269.50707652 207 297 C206.79068848 298.0420459 206.58137695 299.0840918 206.36572266 300.15771484 C196.94325932 345.96302318 176.69502586 389.036534 144.51171875 423.30078125 C142.47639148 425.48804586 140.53878948 427.70817803 138.625 430 C129.66277889 440.28207315 118.84035075 448.80419673 108 457 C106.63101563 458.04607422 106.63101563 458.04607422 105.234375 459.11328125 C78.02072979 479.44203717 46.20745676 493.35161453 13.25 501.1875 C12.26427002 501.42557373 11.27854004 501.66364746 10.26293945 501.90893555 C-7.91584969 506.04713753 -26.02059266 507.56077657 -44.625 507.4375 C-45.62269409 507.43412628 -46.62038818 507.43075256 -47.64831543 507.42727661 C-73.4835296 507.30135041 -97.23040831 503.43714602 -122 496 C-122.71865234 495.79294434 -123.43730469 495.58588867 -124.17773438 495.37255859 C-142.13279834 490.19179373 -160.27022505 482.08218577 -176 472 C-176.69641602 471.55543457 -177.39283203 471.11086914 -178.11035156 470.65283203 C-191.70920638 461.90737168 -204.50315826 452.59284717 -216.30078125 441.51171875 C-218.48804586 439.47639148 -220.70817803 437.53878948 -223 435.625 C-264.61503773 399.35185117 -288.32277129 344.15699021 -298 291 C-298.1635498 290.1126416 -298.32709961 289.2252832 -298.49560547 288.31103516 C-309.39793143 226.3572349 -291.02693141 158.29639644 -256 107 C-252.84988369 102.51015311 -249.49340162 98.23002944 -246 94 C-245.58073242 93.48598633 -245.16146484 92.97197266 -244.72949219 92.44238281 C-235.06049232 80.60857305 -224.90113308 68.63910265 -213 59 C-211.86382353 58.04126429 -210.72849573 57.08152244 -209.59375 56.12109375 C-194.55338599 43.5095966 -178.39153893 33.06841828 -161 24 C-160.2889209 23.62278809 -159.5778418 23.24557617 -158.84521484 22.85693359 C-137.5369374 11.67190605 -113.61763789 4.33161918 -90 0 C-89.18869629 -0.16081055 -88.37739258 -0.32162109 -87.54150391 -0.48730469 C-59.93830873 -5.80298849 -27.53424428 -5.56838353 0 0 Z " fill="#7E817A" transform="translate(301,4)"/>
<path d="M0 0 C4.2111305 1.31278157 8.09823331 3.20902999 12.08203125 5.08984375 C21.48152577 9.43898047 31.00481532 12.8565979 40.89453125 15.90234375 C39.90453125 11.94234375 38.91453125 7.98234375 37.89453125 3.90234375 C45.51642626 6.03199088 52.63219516 8.77506026 59.89453125 11.90234375 C62.28574149 12.92573595 64.67825333 13.94591122 67.07250977 14.9621582 C68.70207816 15.65384095 70.33025945 16.34880419 71.95678711 17.04760742 C77.19190104 19.27174731 82.47238556 21.18448412 87.89453125 22.90234375 C87.89453125 21.25234375 87.89453125 19.60234375 87.89453125 17.90234375 C93.53738688 19.52512576 98.48907229 22.15590442 103.64453125 24.90234375 C104.50691406 25.35351562 105.36929688 25.8046875 106.2578125 26.26953125 C112.63487593 29.64268843 112.63487593 29.64268843 114.89453125 31.90234375 C115.2824532 33.93103189 115.58228603 35.97705442 115.83203125 38.02734375 C116.71807726 44.34827041 118.35541388 49.40114546 120.91796875 55.23046875 C123.76975414 63.03295359 124.17364777 71.66840653 123.89453125 79.90234375 C125.87453125 79.90234375 127.85453125 79.90234375 129.89453125 79.90234375 C129.89453125 75.28234375 129.89453125 70.66234375 129.89453125 65.90234375 C137.58701033 65.90234375 141.73460292 66.82781889 147.20703125 72.15234375 C153.53106213 82.45817185 153.11047595 94.07302801 150.76953125 105.65234375 C148.41215789 114.52003328 144.98629449 122.94374635 137.80078125 128.9140625 C135.89453125 129.90234375 135.89453125 129.90234375 132.84375 130.15625 C131.38388672 130.52556641 131.38388672 130.52556641 129.89453125 130.90234375 C128.22555446 133.60985323 128.22555446 133.60985323 127.20703125 137.15234375 C122.32227501 150.81392553 115.56255273 163.87639412 106.89453125 175.52734375 C106.45737793 176.11700928 106.02022461 176.7066748 105.56982422 177.31420898 C103.24116664 180.30825689 101.22447721 182.67032538 98.08789062 184.87597656 C93.72149124 188.22729339 90.50253775 190.98626657 89.34277344 196.54864502 C88.58784983 204.48880056 89.03422854 212.45010055 89.39453125 220.40234375 C89.55524213 225.14138628 89.68517921 229.8807497 89.80078125 234.62109375 C89.83155762 235.76578125 89.86233398 236.91046875 89.89404297 238.08984375 C90.13027519 250.80609614 88.05089804 262.64133723 84.89453125 274.90234375 C84.23453125 274.90234375 83.57453125 274.90234375 82.89453125 274.90234375 C82.56453125 273.58234375 82.23453125 272.26234375 81.89453125 270.90234375 C81.23453125 270.90234375 80.57453125 270.90234375 79.89453125 270.90234375 C79.83136719 271.45277344 79.76820313 272.00320313 79.703125 272.5703125 C78.28576819 282.19341925 74.93205187 291.21199634 71.76611328 300.36816406 C70.44705704 304.20340323 69.16914074 308.05214405 67.89453125 311.90234375 C67.23453125 311.90234375 66.57453125 311.90234375 65.89453125 311.90234375 C65.78423584 312.61116699 65.67394043 313.31999023 65.56030273 314.05029297 C64.82966664 317.18021262 63.68996012 319.6675222 62.2421875 322.53515625 C61.71302734 323.58832031 61.18386719 324.64148438 60.63867188 325.7265625 C60.08373047 326.81582031 59.52878906 327.90507812 58.95703125 329.02734375 C58.40595703 330.12433594 57.85488281 331.22132813 57.28710938 332.3515625 C53.20454231 340.43732716 53.20454231 340.43732716 50.89453125 343.90234375 C50.23453125 343.90234375 49.57453125 343.90234375 48.89453125 343.90234375 C40.15352729 328.64027335 32.37275401 313.65905225 26.89453125 296.90234375 C26.62189453 296.07879395 26.34925781 295.25524414 26.06835938 294.40673828 C25.23018168 291.86655656 24.40346957 289.32298432 23.58203125 286.77734375 C23.32736084 285.99593018 23.07269043 285.2145166 22.81030273 284.40942383 C21.38399028 279.90111014 20.42444474 275.60298814 19.89453125 270.90234375 C19.23453125 270.90234375 18.57453125 270.90234375 17.89453125 270.90234375 C17.23453125 272.22234375 16.57453125 273.54234375 15.89453125 274.90234375 C13.91740585 271.44451405 13.14209102 268.0372377 12.33203125 264.15234375 C12.08324219 262.981875 11.83445313 261.81140625 11.578125 260.60546875 C10.05976033 252.3802704 9.91201069 244.88895419 10.25390625 236.546875 C10.32014689 234.12575049 10.38252528 231.7045178 10.44140625 229.28320312 C10.53355784 225.49984129 10.64417035 221.72258966 10.8203125 217.94213867 C12.13533464 203.02269474 12.13533464 203.02269474 7.14501953 189.53076172 C4.49208406 186.68188593 1.55342083 184.32096713 -1.59887695 182.04794312 C-4.65634195 179.72307319 -6.65851463 176.58641679 -8.73046875 173.40234375 C-9.38039795 172.43010864 -9.38039795 172.43010864 -10.04345703 171.43823242 C-17.19925093 160.44998764 -23.66996889 148.6803684 -27.79296875 136.21484375 C-28.98263311 132.34718023 -28.98263311 132.34718023 -31.9296875 129.95703125 C-33.97719634 129.56436368 -33.97719634 129.56436368 -36.0546875 129.375 C-40.42065666 128.36874806 -42.78334182 124.48748118 -45.10546875 120.90234375 C-47.10703659 116.99981598 -48.68608815 113.04959643 -50.10546875 108.90234375 C-50.35296875 108.185625 -50.60046875 107.46890625 -50.85546875 106.73046875 C-53.56063552 97.0369545 -53.89782341 83.80243098 -49.10546875 74.90234375 C-46.23214472 70.21988978 -42.32880618 67.49515022 -37.10546875 65.90234375 C-34.79546875 65.90234375 -32.48546875 65.90234375 -30.10546875 65.90234375 C-30.10546875 70.52234375 -30.10546875 75.14234375 -30.10546875 79.90234375 C-28.12546875 79.90234375 -26.14546875 79.90234375 -24.10546875 79.90234375 C-24.14542969 78.62746094 -24.18539062 77.35257812 -24.2265625 76.0390625 C-24.22553113 70.75330736 -23.25307031 65.86907616 -22.16796875 60.71484375 C-20.41712583 51.93964301 -19.59567962 43.43753855 -19.60961914 34.48754883 C-19.44049666 22.2115897 -13.07161212 11.16103946 -4.98046875 2.15234375 C-2.10546875 -0.09765625 -2.10546875 -0.09765625 0 0 Z " fill="#D3A685" transform="translate(206.10546875,123.09765625)"/>
<path d="M0 0 C0.10546143 0.94206299 0.21092285 1.88412598 0.31958008 2.85473633 C0.71908191 6.40247601 1.13003771 9.94881628 1.54418945 13.49487305 C1.72074266 15.0199136 1.89432723 16.54530125 2.06469727 18.07104492 C3.05829302 26.94930377 4.25260739 35.45448596 7 44 C7.66 43.01 8.32 42.02 9 41 C9.66 41 10.32 41 11 41 C11.18062988 41.648479 11.36125977 42.29695801 11.54736328 42.96508789 C15.09029654 55.60483242 18.75375869 67.95475056 24 80 C24.70769531 81.68802734 24.70769531 81.68802734 25.4296875 83.41015625 C27.12985599 87.29685985 28.96847658 91.08660648 30.875 94.875 C31.22433594 95.57318848 31.57367188 96.27137695 31.93359375 96.99072266 C34.22225706 101.53743524 36.61035689 106.00712128 39.1875 110.3984375 C40 112 40 112 40 114 C40.66 114 41.32 114 42 114 C42.40883423 112.93676514 42.40883423 112.93676514 42.82592773 111.85205078 C44.02247721 108.94539847 45.36603225 106.17155159 46.78515625 103.3671875 C47.31560547 102.31402344 47.84605469 101.26085937 48.39257812 100.17578125 C48.94365234 99.08652344 49.49472656 97.99726563 50.0625 96.875 C51.15940672 94.70666639 52.25454329 92.53743612 53.34765625 90.3671875 C53.83242432 89.40925293 54.31719238 88.45131836 54.81665039 87.46435547 C56.08406018 84.95713326 56.08406018 84.95713326 57 82 C57.66 82 58.32 82 59 82 C59.14501953 80.56333984 59.14501953 80.56333984 59.29296875 79.09765625 C59.97864628 74.31472522 61.64765631 69.95394656 63.3125 65.4375 C66.21987088 57.36520005 68.78908424 49.29436718 71 41 C71.66 41 72.32 41 73 41 C73.33 42.32 73.66 43.64 74 45 C74.66 45 75.32 45 76 45 C76.1340625 43.86304688 76.268125 42.72609375 76.40625 41.5546875 C76.77638183 38.58711643 77.21086917 35.64235784 77.71875 32.6953125 C79.59341309 21.78807388 80.61685109 11.05847018 81 0 C85.95870527 1.8858234 90.21719394 4.21719394 94 8 C95.85043633 8.63448215 97.7289017 9.18827947 99.6171875 9.69921875 C100.77186523 10.01769775 101.92654297 10.33617676 103.11621094 10.66430664 C104.35661133 11.00196045 105.59701172 11.33961426 106.875 11.6875 C170.95092333 29.59010749 170.95092333 29.59010749 183.80029297 50.68676758 C185.88805488 54.71231582 186.93474624 58.92368513 188 63.3125 C188.36738281 64.77985596 188.36738281 64.77985596 188.7421875 66.27685547 C190.70894854 74.34792573 192.41304305 82.47145764 194 90.625 C194.23203125 91.78040283 194.4640625 92.93580566 194.703125 94.1262207 C194.90421875 95.2112085 195.1053125 96.29619629 195.3125 97.4140625 C195.49425781 98.3726416 195.67601562 99.3312207 195.86328125 100.31884766 C196.02259685 103.44314035 195.42588154 105.23597889 194 108 C190.66232091 111.08831226 186.79220299 113.50139398 183 116 C182.39784668 116.39912598 181.79569336 116.79825195 181.17529297 117.20947266 C156.19551714 133.62916066 128.29487123 145.28186144 99.25 152.1875 C97.77140503 152.5446106 97.77140503 152.5446106 96.26293945 152.90893555 C78.08415031 157.04713753 59.97940734 158.56077657 41.375 158.4375 C40.37730591 158.43412628 39.37961182 158.43075256 38.35168457 158.42727661 C12.5164704 158.30135041 -11.23040831 154.43714602 -36 147 C-37.07797852 146.6894165 -37.07797852 146.6894165 -38.17773438 146.37255859 C-64.47901686 138.78357087 -92.20418854 125.04166368 -113 107 C-116.43277449 100.13445101 -112.84921028 90.0240721 -111.375 83 C-111.10502197 81.70940674 -110.83504395 80.41881348 -110.55688477 79.08911133 C-108.50694176 69.63821432 -106.08142957 60.78296585 -102 52 C-101.63648437 51.19175781 -101.27296875 50.38351562 -100.8984375 49.55078125 C-90.99907234 30.85593698 -58.34206311 21.9491082 -40 16 C-33.65369113 14.07050524 -27.26127882 12.29089135 -20.84790039 10.59912109 C-19.73278076 10.2995752 -18.61766113 10.0000293 -17.46875 9.69140625 C-16.48326172 9.43560791 -15.49777344 9.17980957 -14.48242188 8.91625977 C-11.893648 7.96074557 -10.78044142 7.05404291 -9 5 C-7.64967765 4.06738437 -6.2732588 3.17157782 -4.875 2.3125 C-4.17117187 1.87550781 -3.46734375 1.43851562 -2.7421875 0.98828125 C-1 0 -1 0 0 0 Z " fill="#545F68" transform="translate(215,353)"/>
<path d="M0 0 C1.58554687 0.30744141 1.58554687 0.30744141 3.203125 0.62109375 C15.85993507 3.28830111 26.32734806 9.57147539 36 18 C36.5878125 18.44472656 37.175625 18.88945313 37.78125 19.34765625 C53.67741187 31.60719618 64.40491969 52.34030071 67 72 C68.38147419 89.93651732 63.63245022 107.80079653 59 125 C54.68903724 126.00514676 51.37164968 125.77146759 47 125 C47 129.62 47 134.24 47 139 C45.02 139 43.04 139 41 139 C40.92483154 138.3702124 40.84966309 137.7404248 40.7722168 137.09155273 C40.42149228 134.20543198 40.05463087 131.32157781 39.6875 128.4375 C39.56955078 127.44685547 39.45160156 126.45621094 39.33007812 125.43554688 C38.59181128 119.73764126 37.50138978 115.16605565 35 110 C34.42295204 108.38722493 33.87680196 106.76274924 33.375 105.125 C33.13523437 104.36445313 32.89546875 103.60390625 32.6484375 102.8203125 C32 100 32 100 31.95385742 97.84179688 C31.88870154 93.26699034 31.88870154 93.26699034 29.58398438 89.51416016 C27.63102318 88.24848707 25.67096333 87.23459914 23.5625 86.25 C22.84126953 85.88076416 22.12003906 85.51152832 21.37695312 85.13110352 C19.26488404 84.05690216 17.13539855 83.02682179 15 82 C12.99974926 80.97965806 10.99969651 79.95892771 9 78.9375 C7.66882148 78.28723681 6.3364685 77.63932027 5 77 C5 78.65 5 80.3 5 82 C0.73220577 81.30089466 -3.16845407 79.92155195 -7.1875 78.375 C-7.87730957 78.11283691 -8.56711914 77.85067383 -9.27783203 77.58056641 C-11.52065593 76.72575049 -13.76067913 75.86394874 -16 75 C-16.77263184 74.70222656 -17.54526367 74.40445313 -18.34130859 74.09765625 C-26.91659137 70.78758644 -35.47490877 67.43753679 -44 64 C-43.01 67.96 -42.02 71.92 -41 76 C-51.73572799 73.40861738 -61.35132059 69.37830787 -71.37866211 64.79760742 C-72.42030518 64.32427979 -73.46194824 63.85095215 -74.53515625 63.36328125 C-75.93326538 62.71806519 -75.93326538 62.71806519 -77.35961914 62.05981445 C-79.94514894 61.0220165 -82.23191656 60.31436674 -85 60 C-92.83767047 65.73856412 -98.58550335 76.74808785 -101 86 C-101.28093324 89.33058649 -101.31838981 92.65911442 -101.375 96 C-101.66959416 105.93167295 -103.09517442 115.35766419 -105.0625 125.08203125 C-105.99256851 129.70765741 -106.54424917 134.30481698 -107 139 C-108.98 139 -110.96 139 -113 139 C-113 134.38 -113 129.76 -113 125 C-118.445 125.99 -118.445 125.99 -124 127 C-124.6520581 123.87618679 -125.29675293 120.75113621 -125.9375 117.625 C-126.11990234 116.75488281 -126.30230469 115.88476562 -126.49023438 114.98828125 C-132.11075586 87.39663034 -130.82214987 57.12877855 -115 33 C-112.20790832 29.44008311 -109.18685337 26.20775077 -106 23 C-105.29617187 22.24976562 -104.59234375 21.49953125 -103.8671875 20.7265625 C-91.4332477 8.37927036 -74.83806064 2.39732405 -58 -1 C-56.89269531 -1.24363281 -55.78539062 -1.48726562 -54.64453125 -1.73828125 C-36.84627825 -4.98839702 -17.5580453 -4.12115692 0 0 Z " fill="#544C48" transform="translate(289,64)"/>
<path d="M0 0 C0.10546143 0.94206299 0.21092285 1.88412598 0.31958008 2.85473633 C0.71908191 6.40247601 1.13003771 9.94881628 1.54418945 13.49487305 C1.72074266 15.0199136 1.89432723 16.54530125 2.06469727 18.07104492 C3.05829302 26.94930377 4.25260739 35.45448596 7 44 C7.66 43.01 8.32 42.02 9 41 C9.66 41 10.32 41 11 41 C11.18062988 41.648479 11.36125977 42.29695801 11.54736328 42.96508789 C15.09029654 55.60483242 18.75375869 67.95475056 24 80 C24.47179687 81.12535156 24.94359375 82.25070312 25.4296875 83.41015625 C27.12985599 87.29685985 28.96847658 91.08660648 30.875 94.875 C31.22433594 95.57318848 31.57367188 96.27137695 31.93359375 96.99072266 C34.22225706 101.53743524 36.61035689 106.00712128 39.1875 110.3984375 C40 112 40 112 40 114 C40.66 114 41.32 114 42 114 C42.40883423 112.93676514 42.40883423 112.93676514 42.82592773 111.85205078 C44.02247721 108.94539847 45.36603225 106.17155159 46.78515625 103.3671875 C47.31560547 102.31402344 47.84605469 101.26085937 48.39257812 100.17578125 C48.94365234 99.08652344 49.49472656 97.99726563 50.0625 96.875 C51.15940672 94.70666639 52.25454329 92.53743612 53.34765625 90.3671875 C53.83242432 89.40925293 54.31719238 88.45131836 54.81665039 87.46435547 C56.08406018 84.95713326 56.08406018 84.95713326 57 82 C57.66 82 58.32 82 59 82 C59.14501953 80.56333984 59.14501953 80.56333984 59.29296875 79.09765625 C59.97864628 74.31472522 61.64765631 69.95394656 63.3125 65.4375 C66.21987088 57.36520005 68.78908424 49.29436718 71 41 C71.66 41 72.32 41 73 41 C73.495 42.98 73.495 42.98 74 45 C74.66 45 75.32 45 76 45 C76.1340625 43.86304688 76.268125 42.72609375 76.40625 41.5546875 C76.77638183 38.58711643 77.21086917 35.64235784 77.71875 32.6953125 C79.59341309 21.78807388 80.61685109 11.05847018 81 0 C90.66669723 3.70912321 90.66669723 3.70912321 93.09848022 7.8874054 C93.95236907 9.88838309 94.635118 11.8370689 95.23681641 13.92651367 C95.45689362 14.68377243 95.67697083 15.44103119 95.90371704 16.22123718 C96.13400604 17.0286586 96.36429504 17.83608002 96.6015625 18.66796875 C96.8428891 19.50338699 97.0842157 20.33880524 97.33285522 21.19953918 C97.84058725 22.95989427 98.34645772 24.72078721 98.85058594 26.48217773 C99.62548058 29.18917885 100.40598917 31.89451176 101.1875 34.59960938 C101.68001442 36.30980172 102.17221301 38.02008506 102.6640625 39.73046875 C102.89839996 40.54396286 103.13273743 41.35745697 103.37417603 42.19560242 C105 47.88292264 105 47.88292264 105 49 C95.1 49.495 95.1 49.495 85 50 C89.05267116 53.11139947 89.05267116 53.11139947 93.10620117 56.22167969 C96.43363548 58.7787638 99.73250309 61.36631134 103 64 C101.49158187 67.55480003 99.42366339 69.79559622 96.67578125 72.484375 C95.37930664 73.76441406 95.37930664 73.76441406 94.05664062 75.0703125 C93.15107422 75.95460938 92.24550781 76.83890625 91.3125 77.75 C89.53530838 79.49229404 87.76052859 81.23705193 85.98828125 82.984375 C85.19977783 83.75491211 84.41127441 84.52544922 83.59887695 85.31933594 C81.54440167 87.43846591 79.60827958 89.58142476 77.68212891 91.81347656 C73.99670536 96.06120978 70.08783321 100.03985698 66.09765625 104 C65.3750914 104.7211499 64.65252655 105.4422998 63.9080658 106.18530273 C61.62857396 108.45925415 59.3456076 110.72967954 57.0625 113 C55.50432494 114.55315235 53.94638007 116.10653567 52.38867188 117.66015625 C48.59510241 121.44277586 44.79868385 125.2225169 41 129 C39 127.625 39 127.625 37 126 C37 125.34 37 124.68 37 124 C36.34 124 35.68 124 35 124 C35 123.34 35 122.68 35 122 C34.34 122 33.68 122 33 122 C33 121.34 33 120.68 33 120 C32.34 120 31.68 120 31 120 C31 119.34 31 118.68 31 118 C30.34 118 29.68 118 29 118 C29 117.34 29 116.68 29 116 C28.34 116 27.68 116 27 116 C25.54356384 114.52108765 25.54356384 114.52108765 23.85522461 112.48193359 C20.20728435 108.19431884 16.32945496 104.23298107 12.31640625 100.2890625 C10.88073294 98.86601296 9.44518966 97.44283223 8.00976562 96.01953125 C5.77081401 93.80556407 3.5302738 91.59324756 1.28735352 89.38330078 C-0.89477043 87.23119197 -3.07078648 85.07305801 -5.24609375 82.9140625 C-5.92409531 82.24952057 -6.60209686 81.58497864 -7.30064392 80.90029907 C-7.91871414 80.2856076 -8.53678436 79.67091614 -9.17358398 79.03759766 C-9.72094711 78.49769196 -10.26831024 77.95778625 -10.83226013 77.40151978 C-12 76 -12 76 -12 74 C-12.66 74 -13.32 74 -14 74 C-14 73.34 -14 72.68 -14 72 C-14.66 72 -15.32 72 -16 72 C-17.5078125 70.25 -17.5078125 70.25 -19.125 68 C-19.66382813 67.2575 -20.20265625 66.515 -20.7578125 65.75 C-21.37269531 64.88375 -21.37269531 64.88375 -22 64 C-20.12653773 62.58126158 -18.25129507 61.16498375 -16.375 59.75 C-15.33085937 58.96109375 -14.28671875 58.1721875 -13.2109375 57.359375 C-10.19048106 55.13996419 -7.13456083 53.05205484 -4 51 C-7.75399798 49.7960663 -11.33217412 49.90122383 -15.25 49.9375 C-17.14492187 49.95103516 -17.14492187 49.95103516 -19.078125 49.96484375 C-20.04234375 49.97644531 -21.0065625 49.98804688 -22 50 C-23.26929984 46.41756821 -22.71470777 44.36356101 -21.5 40.8125 C-19.96126515 36.1319581 -18.55884193 31.4497503 -17.27734375 26.69140625 C-16.97441406 25.57209717 -16.67148438 24.45278809 -16.359375 23.29956055 C-15.74933899 21.03341249 -15.1463606 18.76535167 -14.55078125 16.49536133 C-14.26460937 15.44243896 -13.9784375 14.3895166 -13.68359375 13.3046875 C-13.30545532 11.8813208 -13.30545532 11.8813208 -12.91967773 10.42919922 C-11.35993316 6.30935359 -8.52962535 4.55786945 -4.875 2.3125 C-3.81925781 1.65701172 -3.81925781 1.65701172 -2.7421875 0.98828125 C-1 0 -1 0 0 0 Z " fill="#616E78" transform="translate(215,353)"/>
<path d="M0 0 C3.58072687 1.66005217 6.62933553 3.84715296 9.78125 6.20703125 C10.42642578 6.67947266 11.07160156 7.15191406 11.73632812 7.63867188 C13.31945051 8.79962829 14.89488569 9.97105461 16.46875 11.14453125 C15.92694263 15.273982 14.67516582 17.64870039 12.09375 20.89453125 C11.48789062 21.673125 10.88203125 22.45171875 10.2578125 23.25390625 C8.46875 25.14453125 8.46875 25.14453125 5.46875 26.14453125 C6.39300781 27.43037109 6.39300781 27.43037109 7.3359375 28.7421875 C13.38872941 37.8533725 14.64844645 50.46979167 15.46875 61.14453125 C15.55753418 61.94648926 15.64631836 62.74844727 15.73779297 63.57470703 C16.30161079 72.15692016 13.0933808 78.21905634 9.09375 85.64453125 C8.49046875 86.80984375 7.8871875 87.97515625 7.265625 89.17578125 C5.1309508 93.27435571 3.03325375 97.29777562 0.46875 101.14453125 C-0.19125 101.14453125 -0.85125 101.14453125 -1.53125 101.14453125 C-5.24889375 94.65340725 -5.24889375 94.65340725 -6.80908203 91.78564453 C-8.68032392 88.34898699 -10.51671855 85.16400387 -12.86328125 82.01953125 C-19.50216629 72.27065226 -16.96153773 62.69481708 -14.93115234 51.80419922 C-13.62598298 45.32487658 -12.09742559 39.23647218 -9.53125 33.14453125 C-9.139375 32.15453125 -8.7475 31.16453125 -8.34375 30.14453125 C-8.075625 29.48453125 -7.8075 28.82453125 -7.53125 28.14453125 C-6.87125 28.14453125 -6.21125 28.14453125 -5.53125 28.14453125 C-5.53125 27.48453125 -5.53125 26.82453125 -5.53125 26.14453125 C-6.10359375 25.91636719 -6.6759375 25.68820312 -7.265625 25.453125 C-10.13876805 23.7936372 -11.72385521 21.80163467 -13.78125 19.20703125 C-14.48765625 18.33175781 -15.1940625 17.45648438 -15.921875 16.5546875 C-17.53125 14.14453125 -17.53125 14.14453125 -17.53125 11.14453125 C-15.40863645 8.90969674 -12.83190603 7.2045201 -10.34375 5.39453125 C-9.67021484 4.87503906 -8.99667969 4.35554688 -8.30273438 3.8203125 C-3.37099906 0.19247988 -3.37099906 0.19247988 0 0 Z " fill="#D16B63" transform="translate(256.53125,365.85546875)"/>
<path d="M0 0 C0.99 1.0209375 0.99 1.0209375 2 2.0625 C7.97167165 8.23960743 7.97167165 8.23960743 15 13 C15 13.66 15 14.32 15 15 C22.62717033 16.61840635 30.28728953 17.86364454 38 19 C33.76790414 23.50513431 29.11304141 27.514292 24 31 C23.34 31 22.68 31 22 31 C26.59371878 39.78280135 26.59371878 39.78280135 34 46 C34 46.66 34 47.32 34 48 C33.34 48 32.68 48 32 48 C31.8453125 48.99 31.8453125 48.99 31.6875 50 C31 53 31 53 29.55859375 56.66015625 C27.96022071 60.86579425 27.08873854 65.00626815 26.375 69.4375 C26.24875244 70.17814697 26.12250488 70.91879395 25.99243164 71.68188477 C25.33945996 75.59327527 24.80303078 79.48720245 24.4375 83.4375 C24 87 24 87 22 89 C9 58.23220276 9 58.23220276 9 48 C8.34 48 7.68 48 7 48 C6.34 49.32 5.68 50.64 5 52 C3.0228746 48.5421703 2.24755977 45.13489395 1.4375 41.25 C1.18871094 40.07953125 0.93992188 38.9090625 0.68359375 37.703125 C-0.8140737 29.59004645 -1.15481474 21.86380761 -1.125 13.625 C-1.12886719 12.53316406 -1.13273438 11.44132812 -1.13671875 10.31640625 C-1.13542969 9.27613281 -1.13414062 8.23585938 -1.1328125 7.1640625 C-1.13168457 6.21998535 -1.13055664 5.2759082 -1.12939453 4.30322266 C-1 2 -1 2 0 0 Z " fill="#F9FCFC" transform="translate(217,346)"/>
<path d="M0 0 C2.55996736 4.51417982 2.3427541 8.47843595 2.3125 13.5625 C2.30839111 14.95021606 2.30839111 14.95021606 2.30419922 16.3659668 C2.12428735 28.51415365 0.04907999 40.26767048 -3 52 C-3.66 52 -4.32 52 -5 52 C-5.33 50.68 -5.66 49.36 -6 48 C-6.66 48 -7.32 48 -8 48 C-8.09474609 48.82564453 -8.09474609 48.82564453 -8.19140625 49.66796875 C-9.60876306 59.2910755 -12.96247938 68.30965259 -16.12841797 77.46582031 C-17.44747421 81.30105948 -18.72539051 85.1498003 -20 89 C-20.66 89 -21.32 89 -22 89 C-22.06469482 88.38705078 -22.12938965 87.77410156 -22.19604492 87.14257812 C-24.45231209 65.87736864 -24.45231209 65.87736864 -32 46 C-31.278125 45.484375 -30.55625 44.96875 -29.8125 44.4375 C-25.48512979 40.68711248 -22.15003127 36.70015499 -21 31 C-21.53109375 30.7525 -22.0621875 30.505 -22.609375 30.25 C-25.61841857 28.67664388 -28.41230833 26.86437713 -31.25 25 C-32.32765625 24.29875 -33.4053125 23.5975 -34.515625 22.875 C-35.33546875 22.25625 -36.1553125 21.6375 -37 21 C-37 20.34 -37 19.68 -37 19 C-35.88882812 18.84144531 -34.77765625 18.68289063 -33.6328125 18.51953125 C-19.65533855 16.3875341 -10.08288976 12.91073227 -1.0625 1.5625 C-0.5365625 0.7890625 -0.5365625 0.7890625 0 0 Z " fill="#F9FCFC" transform="translate(294,346)"/>
<path d="M0 0 C3.74244913 3.17740239 7.42533962 6.38386148 11 9.75 C20.32236274 17.97745436 30.64181238 24.07786664 41.8125 29.4375 C42.67133789 29.8504834 43.53017578 30.2634668 44.41503906 30.68896484 C50.14533144 33.35378195 55.90254215 35.34726586 62 37 C61.67 37.99 61.34 38.98 61 40 C45.3527344 46.74451104 29.75250401 45.33380497 14 40 C14 39.34 14 38.68 14 38 C13.319375 37.814375 12.63875 37.62875 11.9375 37.4375 C6.81188233 34.92921901 3.13730135 30.70595203 0 26 C-0.22705078 23.27270508 -0.22705078 23.27270508 -0.1953125 20.01953125 C-0.18886719 18.85615234 -0.18242187 17.69277344 -0.17578125 16.49414062 C-0.15902344 15.27919922 -0.14226562 14.06425781 -0.125 12.8125 C-0.11597656 11.58595703 -0.10695312 10.35941406 -0.09765625 9.09570312 C-0.07406017 6.06360705 -0.04113841 3.03190062 0 0 Z " fill="#D8AA89" transform="translate(218,321)"/>
<path d="M0 0 C4.0848346 0.18999231 5.68228435 0.69706182 8.6875 3.5625 C15.43786571 12.86058439 14.99493341 23.56287275 13.53125 34.50390625 C11.54723379 44.31770072 7.97765188 54.81602017 -0.25390625 61.0859375 C-2.88921277 62.46549393 -5.10709615 62.42335178 -8 62 C-7.0444836 57.14279164 -6.06878818 52.29319876 -5.01171875 47.45703125 C-2.86428676 37.59890251 -0.94871053 28.19121076 -0.984375 18.0625 C-0.9853418 17.16136475 -0.98630859 16.26022949 -0.98730469 15.33178711 C-0.99565804 13.5096307 -1.01172277 11.68749057 -1.03613281 9.86547852 C-1.04483398 9.02428467 -1.05353516 8.18309082 -1.0625 7.31640625 C-1.07410156 6.55787354 -1.08570313 5.79934082 -1.09765625 5.01782227 C-1 3 -1 3 0 0 Z " fill="#D6A987" transform="translate(344,191)"/>
<path d="M0 0 C0.515625 0.66 1.03125 1.32 1.5625 2 C3.55198167 4.44859282 5.56609642 6.86012445 7.625 9.25 C8.21539062 9.93578125 8.80578125 10.6215625 9.4140625 11.328125 C10.91295942 13.09861901 10.91295942 13.09861901 13 14 C13 14.66 13 15.32 13 16 C12.34 16 11.68 16 11 16 C10.896875 16.66 10.79375 17.32 10.6875 18 C10 21 10 21 8.55859375 24.66015625 C6.96022071 28.86579425 6.08873854 33.00626815 5.375 37.4375 C5.24875244 38.17814697 5.12250488 38.91879395 4.99243164 39.68188477 C4.33945996 43.59327527 3.80303078 47.48720245 3.4375 51.4375 C3 55 3 55 1 57 C-12 26.23220276 -12 26.23220276 -12 16 C-12.99 15.67 -13.98 15.34 -15 15 C-14.195625 14.21625 -13.39125 13.4325 -12.5625 12.625 C-10.01309583 10.28017144 -10.01309583 10.28017144 -9 8 C-8.34 8 -7.68 8 -7 8 C-6.6596875 7.13375 -6.6596875 7.13375 -6.3125 6.25 C-4.66961977 3.4336339 -2.60466773 1.91922886 0 0 Z " fill="#F3F5F6" transform="translate(238,378)"/>
<path d="M0 0 C3.36016893 1.12005631 4.69064913 2.37211797 7 5 C7 5.66 7 6.32 7 7 C7.66 7 8.32 7 9 7 C10.5078125 8.96875 10.5078125 8.96875 12.125 11.5 C12.66382813 12.3353125 13.20265625 13.170625 13.7578125 14.03125 C14.16773438 14.6809375 14.57765625 15.330625 15 16 C14.34 16 13.68 16 13 16 C12.90525391 16.82564453 12.90525391 16.82564453 12.80859375 17.66796875 C11.39123694 27.2910755 8.03752062 36.30965259 4.87158203 45.46582031 C3.55252579 49.30105948 2.27460949 53.1498003 1 57 C0.34 57 -0.32 57 -1 57 C-1.06469482 56.38705078 -1.12938965 55.77410156 -1.19604492 55.14257812 C-3.45231209 33.87736864 -3.45231209 33.87736864 -11 14 C-10.278125 13.484375 -9.55625 12.96875 -8.8125 12.4375 C-4.76450194 8.92923502 -1.70270549 5.10811646 0 0 Z " fill="#F2F4F5" transform="translate(273,378)"/>
<path d="M0 0 C1.43370262 0.36984639 2.86457883 0.75076376 4.29296875 1.140625 C11.98764725 3.09547605 19.59692563 4.41065072 27.48046875 5.390625 C28.75535156 5.57625 30.03023437 5.761875 31.34375 5.953125 C39.76097624 7.15279323 47.84510361 7.53184974 56.34765625 7.265625 C59.48046875 7.390625 59.48046875 7.390625 61.48046875 9.390625 C38.42168539 10.22284095 15.67632637 7.87016107 -6.51953125 1.390625 C-3.51953125 -0.609375 -3.51953125 -0.609375 0 0 Z " fill="#6F7778" transform="translate(195.51953125,501.609375)"/>
<path d="M0 0 C3.7602985 0.58107632 6.53035032 1.65199496 9.8125 3.5625 C10.60269531 4.01753906 11.39289063 4.47257812 12.20703125 4.94140625 C12.79871094 5.29074219 13.39039063 5.64007813 14 6 C14 6.66 14 7.32 14 8 C8.76481294 6.56032356 4.36973991 4.18303389 0 1 C0 0.67 0 0.34 0 0 Z " fill="#6E7778" transform="translate(122,473)"/>
<path d="M0 0 C0.7425 0.474375 1.485 0.94875 2.25 1.4375 C4.61050015 2.77869327 6.36648477 3.512312 9 4 C9 4.66 9 5.32 9 6 C6.03 5.01 3.06 4.02 0 3 C0 2.01 0 1.02 0 0 Z " fill="#737A79" transform="translate(139,481)"/>
</svg>
